<svg id="visual" viewBox="0 0 900 600" width="900" height="600" xmlns="http://www.w3.org/2000/svg" xmlns:xlink="http://www.w3.org/1999/xlink" version="1.1"><rect x="0" y="0" width="900" height="600" fill="#001220"></rect><defs><linearGradient id="grad1_0" x1="33.3%" y1="0%" x2="100%" y2="100%"><stop offset="20%" stop-color="#001220" stop-opacity="1"></stop><stop offset="80%" stop-color="#001220" stop-opacity="1"></stop></linearGradient></defs><defs><linearGradient id="grad2_0" x1="0%" y1="0%" x2="66.7%" y2="100%"><stop offset="20%" stop-color="#001220" stop-opacity="1"></stop><stop offset="80%" stop-color="#001220" stop-opacity="1"></stop></linearGradient></defs><g transform="translate(900, 0)"><path d="M0 486.7C-42.5 432.2 -85 377.6 -150.4 363.1C-215.8 348.6 -304.1 374.1 -344.2 344.2C-384.2 314.3 -376 228.9 -391.7 162.3C-407.4 95.6 -447.1 47.8 -486.7 0L0 0Z" fill="#FFFFFF"></path></g><g transform="translate(0, 600)"><path d="M0 -486.7C51.2 -455.5 102.4 -424.2 168.8 -407.4C235.2 -390.7 316.8 -388.5 344.2 -344.2C371.6 -299.8 344.7 -213.3 359.4 -148.9C374.1 -84.5 430.4 -42.2 486.7 0L0 0Z" fill="#FFFFFF"></path></g></svg>