<svg id="visual" viewBox="0 0 900 600" width="900" height="600" xmlns="http://www.w3.org/2000/svg" xmlns:xlink="http://www.w3.org/1999/xlink" version="1.1"><rect x="0" y="0" width="900" height="600" fill="#001220"></rect><defs><linearGradient id="grad1_0" x1="33.3%" y1="0%" x2="100%" y2="100%"><stop offset="20%" stop-color="#001220" stop-opacity="1"></stop><stop offset="80%" stop-color="#001220" stop-opacity="1"></stop></linearGradient></defs><defs><linearGradient id="grad2_0" x1="0%" y1="0%" x2="66.7%" y2="100%"><stop offset="20%" stop-color="#001220" stop-opacity="1"></stop><stop offset="80%" stop-color="#001220" stop-opacity="1"></stop></linearGradient></defs><g transform="translate(900, 0)"><path d="M0 486.7C-58.4 472.8 -116.7 458.8 -182.2 439.8C-247.6 420.7 -320.2 396.6 -344.2 344.2C-368.2 291.7 -343.7 211 -359.4 148.9C-375.1 86.8 -430.9 43.4 -486.7 0L0 0Z" fill="#FFFFFF"></path></g><g transform="translate(0, 600)"><path d="M0 -486.7C42.8 -432.7 85.7 -378.7 150.8 -364C215.9 -349.3 303.3 -374 344.2 -344.2C385.1 -314.4 379.4 -230.2 395.4 -163.8C411.4 -97.4 449.1 -48.7 486.7 0L0 0Z" fill="#FFFFFF"></path></g></svg>